<?xml version="1.0" standalone="no"?>
<!DOCTYPE svg PUBLIC "-//W3C//DTD SVG 20010904//EN"
 "http://www.w3.org/TR/2001/REC-SVG-20010904/DTD/svg10.dtd">
<svg version="1.0" xmlns="http://www.w3.org/2000/svg"
 width="260.000000pt" height="260.000000pt" viewBox="0 0 260.000000 260.000000"
 preserveAspectRatio="xMidYMid meet">
<metadata>
Created by potrace 1.11, written by Peter Selinger 2001-2013
</metadata>
<g transform="translate(0.000000,260.000000) scale(0.100000,-0.100000)"
fill="#000000" stroke="none">
<path d="M190 2545 l0 -55 -50 0 -50 0 0 -60 0 -60 -45 0 -45 0 0 -1070 0
-1070 45 0 45 0 0 -60 0 -60 50 0 50 0 0 -55 0 -55 1110 0 1110 0 0 55 0 55
50 0 50 0 0 60 0 60 45 0 45 0 0 1070 0 1070 -45 0 -45 0 0 60 0 60 -50 0 -50
0 0 55 0 55 -1110 0 -1110 0 0 -55z m2220 -115 l0 -60 50 0 50 0 0 -1070 0
-1070 -50 0 -50 0 0 -60 0 -60 -1110 0 -1110 0 0 60 0 60 -50 0 -50 0 0 1070
0 1070 50 0 50 0 0 60 0 60 1110 0 1110 0 0 -60z"/>
<path d="M280 1355 l0 -905 90 0 90 0 0 60 0 60 50 0 50 0 0 55 0 55 90 0 90
0 0 55 0 55 -140 0 -140 0 0 55 0 55 95 0 95 0 0 60 0 60 95 0 95 0 0 55 0 55
90 0 90 0 0 55 0 55 45 0 45 0 0 60 0 60 -135 0 -135 0 0 55 0 55 90 0 90 0 0
55 0 55 95 0 95 0 0 60 0 60 45 0 45 0 0 55 0 55 95 0 95 0 0 55 0 55 90 0 90
0 0 55 0 55 45 0 45 0 0 60 0 60 95 0 95 0 0 -60 0 -60 -45 0 -45 0 0 -55 0
-55 -50 0 -50 0 0 -55 0 -55 -90 0 -90 0 0 -55 0 -55 -95 0 -95 0 0 -60 0 -60
-45 0 -45 0 0 -55 0 -55 140 0 140 0 0 -55 0 -55 -95 0 -95 0 0 -60 0 -60 -45
0 -45 0 0 -55 0 -55 -95 0 -95 0 0 -55 0 -55 -90 0 -90 0 0 -60 0 -60 90 0 90
0 0 -55 0 -55 -45 0 -45 0 0 -55 0 -55 -90 0 -90 0 0 -55 0 -55 -95 0 -95 0 0
-60 0 -60 695 0 695 0 0 850 0 850 50 0 50 0 0 55 0 55 -930 0 -930 0 0 -905z"/>
<path d="M2230 2090 l0 -60 90 0 90 0 0 60 0 60 -90 0 -90 0 0 -60z"/>
<path d="M2320 1640 l0 -60 -45 0 -45 0 0 -55 0 -55 90 0 90 0 0 115 0 115
-45 0 -45 0 0 -60z"/>
<path d="M2320 1075 l0 -55 -45 0 -45 0 0 -60 0 -60 90 0 90 0 0 115 0 115
-45 0 -45 0 0 -55z"/>
<path d="M2320 510 l0 -60 45 0 45 0 0 60 0 60 -45 0 -45 0 0 -60z"/>
</g>
</svg>
